<mxfile host="app.diagrams.net" modified="2022-10-22T13:08:29.408Z" agent="5.0 (Windows NT 10.0; WOW64) AppleWebKit/537.36 (KHTML, like Gecko) Chrome/88.0.4324.104 Safari/537.36" etag="-2iXtuV0yvfBubgUBLjY" version="20.5.1" type="github" pages="2">
  <diagram id="C5RBs43oDa-KdzZeNtuy" name="Page-1">
    <mxGraphModel dx="569" dy="324" grid="1" gridSize="10" guides="1" tooltips="1" connect="1" arrows="1" fold="1" page="1" pageScale="1" pageWidth="827" pageHeight="1169" background="#F1FAEE" math="0" shadow="0">
      <root>
        <mxCell id="WIyWlLk6GJQsqaUBKTNV-0" />
        <mxCell id="WIyWlLk6GJQsqaUBKTNV-1" parent="WIyWlLk6GJQsqaUBKTNV-0" />
        <mxCell id="WIyWlLk6GJQsqaUBKTNV-2" value="" style="rounded=0;html=1;jettySize=auto;orthogonalLoop=1;fontSize=11;endArrow=block;endFill=0;endSize=8;strokeWidth=1;shadow=0;labelBackgroundColor=none;edgeStyle=orthogonalEdgeStyle;strokeColor=#457B9D;fontColor=#1D3557;" parent="WIyWlLk6GJQsqaUBKTNV-1" source="WIyWlLk6GJQsqaUBKTNV-3" target="WIyWlLk6GJQsqaUBKTNV-6" edge="1">
          <mxGeometry relative="1" as="geometry" />
        </mxCell>
        <mxCell id="WIyWlLk6GJQsqaUBKTNV-3" value="商户收到订单" style="rounded=1;whiteSpace=wrap;html=1;fontSize=12;glass=0;strokeWidth=1;shadow=0;fillColor=#dae8fc;strokeColor=#6c8ebf;fillStyle=auto;" parent="WIyWlLk6GJQsqaUBKTNV-1" vertex="1">
          <mxGeometry x="160" y="80" width="120" height="40" as="geometry" />
        </mxCell>
        <mxCell id="WIyWlLk6GJQsqaUBKTNV-4" value="Yes" style="rounded=0;html=1;jettySize=auto;orthogonalLoop=1;fontSize=11;endArrow=block;endFill=0;endSize=8;strokeWidth=1;shadow=0;labelBackgroundColor=none;edgeStyle=orthogonalEdgeStyle;strokeColor=#457B9D;fontColor=#1D3557;" parent="WIyWlLk6GJQsqaUBKTNV-1" source="WIyWlLk6GJQsqaUBKTNV-6" target="WIyWlLk6GJQsqaUBKTNV-10" edge="1">
          <mxGeometry y="20" relative="1" as="geometry">
            <mxPoint as="offset" />
          </mxGeometry>
        </mxCell>
        <mxCell id="WIyWlLk6GJQsqaUBKTNV-5" value="No" style="edgeStyle=orthogonalEdgeStyle;rounded=0;html=1;jettySize=auto;orthogonalLoop=1;fontSize=11;endArrow=block;endFill=0;endSize=8;strokeWidth=1;shadow=0;labelBackgroundColor=none;strokeColor=#457B9D;fontColor=#1D3557;" parent="WIyWlLk6GJQsqaUBKTNV-1" source="WIyWlLk6GJQsqaUBKTNV-6" target="WIyWlLk6GJQsqaUBKTNV-7" edge="1">
          <mxGeometry y="10" relative="1" as="geometry">
            <mxPoint as="offset" />
          </mxGeometry>
        </mxCell>
        <mxCell id="WIyWlLk6GJQsqaUBKTNV-6" value="Lamp&lt;br&gt;plugged in?" style="rhombus;whiteSpace=wrap;html=1;shadow=0;fontFamily=Helvetica;fontSize=12;align=center;strokeWidth=1;spacing=6;spacingTop=-4;fillColor=#dae8fc;strokeColor=#6c8ebf;" parent="WIyWlLk6GJQsqaUBKTNV-1" vertex="1">
          <mxGeometry x="170" y="170" width="100" height="80" as="geometry" />
        </mxCell>
        <mxCell id="WIyWlLk6GJQsqaUBKTNV-7" value="Plug in lamp" style="rounded=1;whiteSpace=wrap;html=1;fontSize=12;glass=0;strokeWidth=1;shadow=0;fillColor=#dae8fc;strokeColor=#6c8ebf;" parent="WIyWlLk6GJQsqaUBKTNV-1" vertex="1">
          <mxGeometry x="320" y="190" width="120" height="40" as="geometry" />
        </mxCell>
        <mxCell id="WIyWlLk6GJQsqaUBKTNV-8" value="No" style="rounded=0;html=1;jettySize=auto;orthogonalLoop=1;fontSize=11;endArrow=block;endFill=0;endSize=8;strokeWidth=1;shadow=0;labelBackgroundColor=none;edgeStyle=orthogonalEdgeStyle;strokeColor=#457B9D;fontColor=#1D3557;" parent="WIyWlLk6GJQsqaUBKTNV-1" source="WIyWlLk6GJQsqaUBKTNV-10" target="WIyWlLk6GJQsqaUBKTNV-11" edge="1">
          <mxGeometry x="0.3333" y="20" relative="1" as="geometry">
            <mxPoint as="offset" />
          </mxGeometry>
        </mxCell>
        <mxCell id="WIyWlLk6GJQsqaUBKTNV-9" value="Yes" style="edgeStyle=orthogonalEdgeStyle;rounded=0;html=1;jettySize=auto;orthogonalLoop=1;fontSize=11;endArrow=block;endFill=0;endSize=8;strokeWidth=1;shadow=0;labelBackgroundColor=none;strokeColor=#457B9D;fontColor=#1D3557;" parent="WIyWlLk6GJQsqaUBKTNV-1" source="WIyWlLk6GJQsqaUBKTNV-10" target="WIyWlLk6GJQsqaUBKTNV-12" edge="1">
          <mxGeometry y="10" relative="1" as="geometry">
            <mxPoint as="offset" />
          </mxGeometry>
        </mxCell>
        <mxCell id="WIyWlLk6GJQsqaUBKTNV-10" value="Bulb&lt;br&gt;burned out?" style="rhombus;whiteSpace=wrap;html=1;shadow=0;fontFamily=Helvetica;fontSize=12;align=center;strokeWidth=1;spacing=6;spacingTop=-4;fillColor=#dae8fc;strokeColor=#6c8ebf;" parent="WIyWlLk6GJQsqaUBKTNV-1" vertex="1">
          <mxGeometry x="170" y="290" width="100" height="80" as="geometry" />
        </mxCell>
        <mxCell id="WIyWlLk6GJQsqaUBKTNV-11" value="Repair Lamp" style="rounded=1;whiteSpace=wrap;html=1;fontSize=12;glass=0;strokeWidth=1;shadow=0;fillColor=#dae8fc;strokeColor=#6c8ebf;" parent="WIyWlLk6GJQsqaUBKTNV-1" vertex="1">
          <mxGeometry x="160" y="430" width="120" height="40" as="geometry" />
        </mxCell>
        <mxCell id="WIyWlLk6GJQsqaUBKTNV-12" value="Replace Bulb" style="rounded=1;whiteSpace=wrap;html=1;fontSize=12;glass=0;strokeWidth=1;shadow=0;fillColor=#dae8fc;strokeColor=#6c8ebf;" parent="WIyWlLk6GJQsqaUBKTNV-1" vertex="1">
          <mxGeometry x="320" y="310" width="120" height="40" as="geometry" />
        </mxCell>
      </root>
    </mxGraphModel>
  </diagram>
  <diagram id="e-q_8VrD7Fn2e1aES4Aq" name="第 2 页">
    <mxGraphModel dx="1138" dy="648" grid="1" gridSize="10" guides="1" tooltips="1" connect="1" arrows="1" fold="1" page="1" pageScale="1" pageWidth="827" pageHeight="1169" math="0" shadow="0">
      <root>
        <mxCell id="0" />
        <mxCell id="1" parent="0" />
        <mxCell id="lb3srbIIskXuuuoLFYIL-1" value="" style="rounded=0;whiteSpace=wrap;html=1;hachureGap=4;pointerEvents=0;strokeColor=default;dashed=1;" vertex="1" parent="1">
          <mxGeometry x="114" y="540" width="670" height="220" as="geometry" />
        </mxCell>
        <mxCell id="lb3srbIIskXuuuoLFYIL-2" value="" style="rounded=0;whiteSpace=wrap;html=1;hachureGap=4;pointerEvents=0;strokeColor=default;dashed=1;" vertex="1" parent="1">
          <mxGeometry x="114" y="444" width="670" height="90" as="geometry" />
        </mxCell>
        <mxCell id="lb3srbIIskXuuuoLFYIL-3" value="" style="rounded=0;whiteSpace=wrap;html=1;hachureGap=4;pointerEvents=0;strokeColor=default;dashed=1;" vertex="1" parent="1">
          <mxGeometry x="114" y="300" width="670" height="140" as="geometry" />
        </mxCell>
        <mxCell id="lb3srbIIskXuuuoLFYIL-4" value="&lt;span style=&quot;font-size: 18px;&quot;&gt;客户&lt;/span&gt;" style="rounded=1;whiteSpace=wrap;html=1;strokeWidth=2;fillWeight=4;hachureGap=8;hachureAngle=45;fillColor=#dae8fc;sketch=1;pointerEvents=0;strokeColor=#6c8ebf;" vertex="1" parent="1">
          <mxGeometry x="202" y="127" width="100" height="40" as="geometry" />
        </mxCell>
        <mxCell id="lb3srbIIskXuuuoLFYIL-5" value="&lt;span style=&quot;font-size: 18px;&quot;&gt;商家EBK&lt;/span&gt;" style="rounded=1;whiteSpace=wrap;html=1;strokeWidth=2;fillWeight=4;hachureGap=8;hachureAngle=45;fillColor=#dae8fc;sketch=1;pointerEvents=0;strokeColor=#6c8ebf;" vertex="1" parent="1">
          <mxGeometry x="534" y="130" width="100" height="40" as="geometry" />
        </mxCell>
        <mxCell id="lb3srbIIskXuuuoLFYIL-6" value="" style="rounded=0;whiteSpace=wrap;html=1;hachureGap=4;pointerEvents=0;strokeColor=default;dashed=1;" vertex="1" parent="1">
          <mxGeometry x="114" y="187" width="670" height="100" as="geometry" />
        </mxCell>
        <mxCell id="lb3srbIIskXuuuoLFYIL-7" value="&lt;span style=&quot;font-size: 24px;&quot;&gt;下&lt;br&gt;单&lt;/span&gt;" style="shape=ext;double=1;rounded=1;whiteSpace=wrap;html=1;hachureGap=4;pointerEvents=0;strokeColor=#82b366;fillColor=#d5e8d4;" vertex="1" parent="1">
          <mxGeometry x="44" y="187" width="60" height="100" as="geometry" />
        </mxCell>
        <mxCell id="lb3srbIIskXuuuoLFYIL-8" value="&lt;font style=&quot;font-size: 24px&quot;&gt;&lt;br&gt;订单列表&lt;br&gt;&lt;br&gt;&lt;br&gt;&lt;br&gt;订单详情&lt;br&gt;&lt;br&gt;&lt;br&gt;&lt;br&gt;订单处理&lt;br&gt;&lt;br&gt;&lt;br&gt;&lt;br&gt;&lt;/font&gt;" style="shape=ext;double=1;rounded=1;whiteSpace=wrap;html=1;hachureGap=4;pointerEvents=0;strokeColor=#82b366;fillColor=#d5e8d4;" vertex="1" parent="1">
          <mxGeometry x="44" y="300" width="60" height="460" as="geometry" />
        </mxCell>
        <mxCell id="lb3srbIIskXuuuoLFYIL-9" value="" style="edgeStyle=none;curved=1;rounded=0;orthogonalLoop=1;jettySize=auto;html=1;endArrow=open;sourcePerimeterSpacing=8;targetPerimeterSpacing=8;" edge="1" parent="1">
          <mxGeometry relative="1" as="geometry">
            <mxPoint x="250" y="254" as="sourcePoint" />
            <mxPoint x="250" y="350" as="targetPoint" />
          </mxGeometry>
        </mxCell>
        <mxCell id="lb3srbIIskXuuuoLFYIL-11" value="&lt;font style=&quot;font-size: 18px&quot;&gt;提交订单&lt;br&gt;&lt;/font&gt;" style="rounded=0;whiteSpace=wrap;html=1;hachureGap=4;pointerEvents=0;strokeColor=#6c8ebf;fillColor=#dae8fc;" vertex="1" parent="1">
          <mxGeometry x="150" y="205" width="204" height="52" as="geometry" />
        </mxCell>
        <mxCell id="lb3srbIIskXuuuoLFYIL-12" value="" style="edgeStyle=none;curved=1;rounded=0;orthogonalLoop=1;jettySize=auto;html=1;dashed=1;endArrow=open;sourcePerimeterSpacing=8;targetPerimeterSpacing=8;" edge="1" parent="1" source="lb3srbIIskXuuuoLFYIL-14" target="lb3srbIIskXuuuoLFYIL-15">
          <mxGeometry relative="1" as="geometry" />
        </mxCell>
        <mxCell id="lb3srbIIskXuuuoLFYIL-14" value="&lt;font style=&quot;font-size: 18px&quot;&gt;已下单信息&lt;/font&gt;" style="rounded=0;whiteSpace=wrap;html=1;hachureGap=4;pointerEvents=0;strokeColor=#6c8ebf;fillColor=#dae8fc;" vertex="1" parent="1">
          <mxGeometry x="150" y="313" width="200" height="37" as="geometry" />
        </mxCell>
        <mxCell id="lYlp_U3yBAC3iGT6xkXD-1" style="edgeStyle=orthogonalEdgeStyle;rounded=0;orthogonalLoop=1;jettySize=auto;html=1;exitX=0.5;exitY=1;exitDx=0;exitDy=0;entryX=0.5;entryY=0;entryDx=0;entryDy=0;strokeColor=#457B9D;fontColor=#1D3557;fillColor=#A8DADC;" edge="1" parent="1" source="lb3srbIIskXuuuoLFYIL-15" target="lb3srbIIskXuuuoLFYIL-30">
          <mxGeometry relative="1" as="geometry" />
        </mxCell>
        <mxCell id="lb3srbIIskXuuuoLFYIL-15" value="&lt;font style=&quot;font-size: 18px&quot;&gt;API：获取订单列表信息&lt;br&gt;&lt;/font&gt;" style="rounded=0;whiteSpace=wrap;html=1;hachureGap=4;pointerEvents=0;strokeColor=#6c8ebf;fillColor=#dae8fc;" vertex="1" parent="1">
          <mxGeometry x="474" y="310" width="200" height="40" as="geometry" />
        </mxCell>
        <mxCell id="lYlp_U3yBAC3iGT6xkXD-6" style="edgeStyle=orthogonalEdgeStyle;rounded=0;orthogonalLoop=1;jettySize=auto;html=1;exitX=0.5;exitY=1;exitDx=0;exitDy=0;strokeColor=#457B9D;fontColor=#1D3557;fillColor=#A8DADC;" edge="1" parent="1" source="lb3srbIIskXuuuoLFYIL-25" target="lb3srbIIskXuuuoLFYIL-37">
          <mxGeometry relative="1" as="geometry" />
        </mxCell>
        <mxCell id="lb3srbIIskXuuuoLFYIL-25" value="&lt;div&gt;&lt;span style=&quot;font-size: 16px&quot;&gt;API：订单详情接口&lt;/span&gt;&lt;/div&gt;" style="rounded=0;whiteSpace=wrap;html=1;hachureGap=4;pointerEvents=0;strokeColor=#6c8ebf;fillColor=#dae8fc;align=center;" vertex="1" parent="1">
          <mxGeometry x="524" y="467" width="120" height="44" as="geometry" />
        </mxCell>
        <mxCell id="lb3srbIIskXuuuoLFYIL-26" value="" style="endArrow=none;html=1;dashed=1;sourcePerimeterSpacing=8;targetPerimeterSpacing=8;strokeColor=#3399FF;" edge="1" parent="1">
          <mxGeometry width="50" height="50" relative="1" as="geometry">
            <mxPoint x="381" y="780" as="sourcePoint" />
            <mxPoint x="381" y="100" as="targetPoint" />
          </mxGeometry>
        </mxCell>
        <mxCell id="lb3srbIIskXuuuoLFYIL-27" value="" style="edgeStyle=none;curved=1;rounded=0;orthogonalLoop=1;jettySize=auto;html=1;endArrow=classicThin;endFill=1;sourcePerimeterSpacing=8;targetPerimeterSpacing=8;strokeColor=#000000;exitX=0.5;exitY=1;exitDx=0;exitDy=0;" edge="1" parent="1" source="lb3srbIIskXuuuoLFYIL-4">
          <mxGeometry relative="1" as="geometry">
            <mxPoint x="251" y="183" as="sourcePoint" />
            <mxPoint x="251" y="205" as="targetPoint" />
          </mxGeometry>
        </mxCell>
        <mxCell id="lYlp_U3yBAC3iGT6xkXD-3" style="edgeStyle=orthogonalEdgeStyle;rounded=0;orthogonalLoop=1;jettySize=auto;html=1;exitX=0.5;exitY=1;exitDx=0;exitDy=0;entryX=0.5;entryY=0;entryDx=0;entryDy=0;strokeColor=#457B9D;fontColor=#1D3557;fillColor=#A8DADC;" edge="1" parent="1" source="lb3srbIIskXuuuoLFYIL-30" target="lb3srbIIskXuuuoLFYIL-25">
          <mxGeometry relative="1" as="geometry" />
        </mxCell>
        <mxCell id="lb3srbIIskXuuuoLFYIL-30" value="查询订单&lt;br&gt;详情" style="rhombus;whiteSpace=wrap;html=1;rounded=0;strokeColor=#6c8ebf;fillColor=#dae8fc;hachureGap=4;fontSize=16;" vertex="1" parent="1">
          <mxGeometry x="537" y="380" width="94" height="60" as="geometry" />
        </mxCell>
        <mxCell id="lb3srbIIskXuuuoLFYIL-32" value="&lt;span style=&quot;font-size: 18px&quot;&gt;接单&lt;/span&gt;" style="rounded=0;whiteSpace=wrap;html=1;hachureGap=4;pointerEvents=0;strokeColor=#6c8ebf;fillColor=#dae8fc;" vertex="1" parent="1">
          <mxGeometry x="394" y="690" width="80" height="40" as="geometry" />
        </mxCell>
        <mxCell id="lYlp_U3yBAC3iGT6xkXD-11" style="edgeStyle=orthogonalEdgeStyle;rounded=0;orthogonalLoop=1;jettySize=auto;html=1;exitX=0.5;exitY=1;exitDx=0;exitDy=0;strokeColor=#457B9D;fontColor=#1D3557;fillColor=#A8DADC;" edge="1" parent="1" source="lb3srbIIskXuuuoLFYIL-37" target="lb3srbIIskXuuuoLFYIL-32">
          <mxGeometry relative="1" as="geometry" />
        </mxCell>
        <mxCell id="lYlp_U3yBAC3iGT6xkXD-12" style="edgeStyle=orthogonalEdgeStyle;rounded=0;orthogonalLoop=1;jettySize=auto;html=1;exitX=0.5;exitY=1;exitDx=0;exitDy=0;strokeColor=#457B9D;fontColor=#1D3557;fillColor=#A8DADC;" edge="1" parent="1" source="lb3srbIIskXuuuoLFYIL-37" target="lYlp_U3yBAC3iGT6xkXD-7">
          <mxGeometry relative="1" as="geometry" />
        </mxCell>
        <mxCell id="lYlp_U3yBAC3iGT6xkXD-13" style="edgeStyle=orthogonalEdgeStyle;rounded=0;orthogonalLoop=1;jettySize=auto;html=1;exitX=0.5;exitY=1;exitDx=0;exitDy=0;entryX=0.5;entryY=0;entryDx=0;entryDy=0;strokeColor=#457B9D;fontColor=#1D3557;fillColor=#A8DADC;" edge="1" parent="1" source="lb3srbIIskXuuuoLFYIL-37" target="lYlp_U3yBAC3iGT6xkXD-8">
          <mxGeometry relative="1" as="geometry" />
        </mxCell>
        <mxCell id="lYlp_U3yBAC3iGT6xkXD-14" style="edgeStyle=orthogonalEdgeStyle;rounded=0;orthogonalLoop=1;jettySize=auto;html=1;exitX=0.5;exitY=1;exitDx=0;exitDy=0;strokeColor=#457B9D;fontColor=#1D3557;fillColor=#A8DADC;" edge="1" parent="1" source="lb3srbIIskXuuuoLFYIL-37" target="lYlp_U3yBAC3iGT6xkXD-9">
          <mxGeometry relative="1" as="geometry" />
        </mxCell>
        <mxCell id="lb3srbIIskXuuuoLFYIL-37" value="&lt;span style=&quot;font-size: 16px&quot;&gt;API：订单处理&lt;/span&gt;" style="whiteSpace=wrap;html=1;rounded=0;strokeColor=#6c8ebf;fillColor=#dae8fc;hachureGap=4;" vertex="1" parent="1">
          <mxGeometry x="524" y="565" width="120" height="60" as="geometry" />
        </mxCell>
        <mxCell id="lYlp_U3yBAC3iGT6xkXD-7" value="&lt;span style=&quot;font-size: 18px&quot;&gt;派送&lt;/span&gt;" style="rounded=0;whiteSpace=wrap;html=1;hachureGap=4;pointerEvents=0;strokeColor=#6c8ebf;fillColor=#dae8fc;" vertex="1" parent="1">
          <mxGeometry x="494" y="690" width="80" height="40" as="geometry" />
        </mxCell>
        <mxCell id="lYlp_U3yBAC3iGT6xkXD-8" value="&lt;span style=&quot;font-size: 18px&quot;&gt;取消&lt;/span&gt;" style="rounded=0;whiteSpace=wrap;html=1;hachureGap=4;pointerEvents=0;strokeColor=#6c8ebf;fillColor=#dae8fc;" vertex="1" parent="1">
          <mxGeometry x="594" y="690" width="80" height="40" as="geometry" />
        </mxCell>
        <mxCell id="lYlp_U3yBAC3iGT6xkXD-9" value="&lt;span style=&quot;font-size: 18px&quot;&gt;送达&lt;/span&gt;" style="rounded=0;whiteSpace=wrap;html=1;hachureGap=4;pointerEvents=0;strokeColor=#6c8ebf;fillColor=#dae8fc;" vertex="1" parent="1">
          <mxGeometry x="690" y="690" width="80" height="40" as="geometry" />
        </mxCell>
      </root>
    </mxGraphModel>
  </diagram>
</mxfile>
